<?xml version="1.0" encoding="utf-8"?>
<!-- Generator: Adobe Illustrator 16.0.0, SVG Export Plug-In . SVG Version: 6.00 Build 0)  -->
<!DOCTYPE svg PUBLIC "-//W3C//DTD SVG 1.1//EN" "http://www.w3.org/Graphics/SVG/1.1/DTD/svg11.dtd">
<svg version="1.1" id="Layer_1" xmlns="http://www.w3.org/2000/svg" xmlns:xlink="http://www.w3.org/1999/xlink" x="0px" y="0px"
	 width="50px" height="50px" viewBox="0 0 50 50" enable-background="new 0 0 50 50" xml:space="preserve">
<g>
	<g>
		<g>
			<path fill="#5140CC" d="M24.654,25.375H3.407c-0.239,0-0.46-0.128-0.581-0.335c-0.12-0.207-0.12-0.463,0-0.67l10.624-18.4
				c0.12-0.208,0.341-0.335,0.581-0.335s0.46,0.128,0.581,0.335l10.623,18.4c0.12,0.207,0.12,0.463,0,0.67
				C25.114,25.247,24.893,25.375,24.654,25.375z M4.567,24.034h18.925L14.03,7.644L4.567,24.034z"/>
		</g>
		<g>
			<circle fill="#5140CC" cx="24.654" cy="24.704" r="2.791"/>
		</g>
		<g>
			<circle fill="#5140CC" cx="14.03" cy="6.304" r="2.791"/>
		</g>
		<g>
			<circle fill="#5140CC" cx="3.407" cy="24.704" r="2.791"/>
		</g>
	</g>
	<g>
		<g>
			<path fill="#5140CC" d="M45.9,25.375H24.654c-0.24,0-0.461-0.128-0.581-0.335c-0.12-0.207-0.12-0.463,0-0.67l10.624-18.4
				c0.119-0.208,0.341-0.335,0.58-0.335s0.461,0.128,0.58,0.335l10.624,18.4c0.119,0.207,0.119,0.463,0,0.67
				C46.361,25.247,46.141,25.375,45.9,25.375z M25.814,24.034H44.74l-9.463-16.39L25.814,24.034z"/>
		</g>
		<g>
			<circle fill="#5140CC" cx="45.901" cy="24.704" r="2.792"/>
		</g>
		<g>
			<circle fill="#5140CC" cx="35.277" cy="6.304" r="2.791"/>
		</g>
		<g>
			<circle fill="#5140CC" cx="24.654" cy="24.704" r="2.791"/>
		</g>
	</g>
	<g>
		<g>
			<path fill="#5140CC" d="M35.277,43.774H14.03c-0.239,0-0.46-0.128-0.581-0.335c-0.12-0.207-0.12-0.463,0-0.67l10.624-18.4
				c0.12-0.208,0.341-0.335,0.581-0.335c0.239,0,0.46,0.128,0.58,0.335l10.624,18.4c0.12,0.207,0.12,0.463,0,0.67
				C35.738,43.646,35.517,43.774,35.277,43.774z M15.191,42.435h18.925l-9.462-16.39L15.191,42.435z"/>
		</g>
		<g>
			<circle fill="#5140CC" cx="35.277" cy="43.104" r="2.791"/>
		</g>
		<g>
			<circle fill="#5140CC" cx="24.654" cy="24.704" r="2.791"/>
		</g>
		<g>
			<circle fill="#5140CC" cx="14.03" cy="43.104" r="2.791"/>
		</g>
	</g>
</g>
</svg>
