<?xml version="1.0" encoding="utf-8"?>
<!-- Generator: Adobe Illustrator 16.0.0, SVG Export Plug-In . SVG Version: 6.00 Build 0)  -->
<!DOCTYPE svg PUBLIC "-//W3C//DTD SVG 1.1//EN" "http://www.w3.org/Graphics/SVG/1.1/DTD/svg11.dtd">
<svg version="1.1" id="Layer_1" xmlns="http://www.w3.org/2000/svg" xmlns:xlink="http://www.w3.org/1999/xlink" x="0px" y="0px"
	 width="100px" height="100px" viewBox="0 0 100 100" enable-background="new 0 0 100 100" xml:space="preserve">
<g>
	<ellipse fill="#38C12D" cx="49.105" cy="49.499" rx="39.216" ry="39.284"/>
	<path fill="#FFFFFF" d="M10.426,56.815c0.435,2.143,0.758,3.254,0.758,3.254c1.76-1.121,3.77-2.535,5.164-3.404
		c2.82-1.758,5.51-3.756,8.92-4.528c6.309-1.424,10.854,8.268,17.886,7.146c1.968-0.313,10.701-2.542,10.652-5.139
		c-0.056-2.875-8.503-0.482-10.547-0.71c-2.597-0.29-9.725-5.296-9.908-8.36c-0.321-5.361,7.265,3.681,8.845,3.31
		c5.069-1.195-4.593-8.571-6.006-9.39c-3.868-2.243-8.237-3.913-12.517-1.68c-3.708,1.935-7.15,4.855-10.431,7.188
		c-1.101,0.784-2.246,1.504-3.398,2.216c0,0-0.167,3.061-0.097,4.1c0.071,1.041,0.231,3.062,0.318,3.703
		C10.152,55.162,10.426,56.815,10.426,56.815z"/>
	<path fill="#FFFFFF" d="M88.321,51.57c0.215-2.563,0.224-2.563,0.076-4.833c-0.177-2.717-0.447-2.686-0.447-2.686
		c-1.793,1.071-3.416,2.301-4.832,3.131c-2.87,1.679-5.613,3.602-9.043,4.276c-6.346,1.25-10.618-8.565-17.68-7.639
		c-1.977,0.259-10.77,2.244-10.792,4.839c-0.025,2.876,8.486,0.719,10.521,1.005c2.59,0.362,9.576,5.563,9.672,8.633
		c0.173,5.366-7.157-3.883-8.748-3.554c-5.101,1.053,4.353,8.694,5.742,9.553c3.803,2.349,8.124,4.141,12.466,2.027
		c3.76-1.83,7.282-4.653,10.626-6.895l1.474-1.228c0,0,0,0,0.542-2.289C88.185,54.703,88.062,54.682,88.321,51.57z"/>
</g>
</svg>
