<?xml version="1.0" encoding="utf-8"?>
<!-- Generator: Adobe Illustrator 16.0.0, SVG Export Plug-In . SVG Version: 6.00 Build 0)  -->
<!DOCTYPE svg PUBLIC "-//W3C//DTD SVG 1.1//EN" "http://www.w3.org/Graphics/SVG/1.1/DTD/svg11.dtd">
<svg version="1.1" id="Layer_1" xmlns="http://www.w3.org/2000/svg" xmlns:xlink="http://www.w3.org/1999/xlink" x="0px" y="0px"
	 width="50px" height="50px" viewBox="0 0 50 50" enable-background="new 0 0 50 50" xml:space="preserve">
<g>
	<g>
		<polygon fill="#EFEFEF" points="17.902,38.305 4.204,43.816 4.204,11.567 17.902,6.055 		"/>
	</g>
	<g>
		<polygon fill="#EFEFEF" points="45.294,38.305 31.598,43.816 31.598,11.567 45.294,6.055 		"/>
	</g>
	<g>
		<polygon fill="#C6C6C6" points="31.598,43.816 17.902,38.305 17.902,6.055 31.598,11.567 		"/>
	</g>
	<g>
		<polygon fill="#CECECE" points="31.832,34.98 17.863,27.962 4.531,33.375 3.877,31.771 17.939,26.063 31.959,33.106 
			45.012,28.614 45.576,30.252 		"/>
	</g>
	<g>
		
			<rect x="37.73" y="19.213" transform="matrix(0.6614 0.75 -0.75 0.6614 34.1748 -19.4191)" fill="#CECECE" width="1.73" height="17.857"/>
	</g>
	<g>
		<path fill="#EA1351" d="M30.074,23.631c0,1.938-3.508,7.779-3.508,7.779s-3.509-5.841-3.509-7.779s1.57-3.509,3.509-3.509
			C28.504,20.123,30.074,21.693,30.074,23.631z"/>
	</g>
	<g>
		<circle fill="#EFEFEF" cx="26.415" cy="23.758" r="1.058"/>
	</g>
	<g>
		<polygon fill="#CECECE" points="3.854,23.096 3.599,21.385 17.557,19.299 22.806,15.344 23.513,8.57 25.236,8.749 24.448,16.272 
			18.246,20.947 		"/>
	</g>
	<g>
		<path fill="#232321" d="M3.34,45.099V10.982l14.562-5.86l13.695,5.512l14.561-5.861V38.89l-14.561,5.861l-13.695-5.514
			L3.34,45.099z M17.902,37.372l13.695,5.513l12.831-5.165V7.335L31.598,12.5L17.902,6.987L5.069,12.151v30.385L17.902,37.372z"/>
	</g>
</g>
</svg>
